HIERARCHY
ROOT joint_Root
{
	OFFSET 0.0 0.0 0.0
	CHANNELS 6 Xposition Yposition Zposition Zrotation Xrotation Yrotation 
	JOINT Hips
	{
		OFFSET 4.5925 91.4895 -427.239
		CHANNELS 6 Xposition Yposition Zposition Zrotation Xrotation Yrotation 
		JOINT Spine
		{
			OFFSET 15.7357 0.0 0.0
			CHANNELS 6 Xposition Yposition Zposition Zrotation Xrotation Yrotation 
			JOINT Chest
			{
				OFFSET 8.98455 -0.406207 0.0
				CHANNELS 6 Xposition Yposition Zposition Zrotation Xrotation Yrotation 
				JOINT Neck
				{
					OFFSET 16.3773 0.0 0.0
					CHANNELS 6 Xposition Yposition Zposition Zrotation Xrotation Yrotation 
					JOINT Head
					{
						OFFSET 6.45672 0.0 0.0
						CHANNELS 6 Xposition Yposition Zposition Zrotation Xrotation Yrotation 
						End Site
						{
							OFFSET 0.0 0.0 0.0
						}
					}
				}
				JOINT Shoulder_L
				{
					OFFSET 12.9942 -0.242716 4.98039
					CHANNELS 6 Xposition Yposition Zposition Zrotation Xrotation Yrotation 
					JOINT UpperArm_L
					{
						OFFSET 5.34809 0.0 0.0
						CHANNELS 6 Xposition Yposition Zposition Zrotation Xrotation Yrotation 
						JOINT LowerArm_L
						{
							OFFSET 24.3286 1.87007e-05 0.0
							CHANNELS 6 Xposition Yposition Zposition Zrotation Xrotation Yrotation 
							JOINT Hand_L
							{
								OFFSET 22.2916 0.0 0.0
								CHANNELS 6 Xposition Yposition Zposition Zrotation Xrotation Yrotation 
								End Site
								{
									OFFSET 0.0 0.0 0.0
								}
							}
						}
					}
				}
				JOINT Shoulder_R
				{
					OFFSET 12.9945 -0.242716 -4.98039
					CHANNELS 6 Xposition Yposition Zposition Zrotation Xrotation Yrotation 
					JOINT UpperArm_R
					{
						OFFSET -5.34813 0.0 0.0
						CHANNELS 6 Xposition Yposition Zposition Zrotation Xrotation Yrotation 
						JOINT LowerArm_R
						{
							OFFSET -24.3289 0.000322201 0.0
							CHANNELS 6 Xposition Yposition Zposition Zrotation Xrotation Yrotation 
							JOINT Hand_R
							{
								OFFSET -22.2915 -0.000108084 0.0
								CHANNELS 6 Xposition Yposition Zposition Zrotation Xrotation Yrotation 
								End Site
								{
									OFFSET 0.0 0.0 0.0
								}
							}
						}
					}
				}
			}
		}
		JOINT UpperLeg_L
		{
			OFFSET -2.19248 -6.46944 0.0
			CHANNELS 6 Xposition Yposition Zposition Zrotation Xrotation Yrotation 
			JOINT LowerLeg_L
			{
				OFFSET 39.0811 0.0 -1.23785e-05
				CHANNELS 6 Xposition Yposition Zposition Zrotation Xrotation Yrotation 
				JOINT Foot_L
				{
					OFFSET 40.9854 0.0 -1.26872e-05
					CHANNELS 6 Xposition Yposition Zposition Zrotation Xrotation Yrotation 
					JOINT Toes_L
					{
						OFFSET 11.7543 0.0 0.0
						CHANNELS 6 Xposition Yposition Zposition Zrotation Xrotation Yrotation 
						End Site
						{
							OFFSET 0.0 0.0 0.0
						}
					}
				}
			}
		}
		JOINT UpperLeg_R
		{
			OFFSET -2.19251 6.46944 0.0
			CHANNELS 6 Xposition Yposition Zposition Zrotation Xrotation Yrotation 
			JOINT LowerLeg_R
			{
				OFFSET -39.0811 -0.00228153 -0.0401928
				CHANNELS 6 Xposition Yposition Zposition Zrotation Xrotation Yrotation 
				JOINT Foot_R
				{
					OFFSET -40.9854 0.0 0.0
					CHANNELS 6 Xposition Yposition Zposition Zrotation Xrotation Yrotation 
					JOINT Toes_R
					{
						OFFSET -11.7543 0.0 0.0
						CHANNELS 6 Xposition Yposition Zposition Zrotation Xrotation Yrotation 
						End Site
						{
							OFFSET 0.0 0.0 0.0
						}
					}
				}
			}
		}
	}
}
MOTION
Frames:	6
Frame Time:	0.0333333
0.000000 0.000000 0.000000 0.000000 0.000000 -0.000000 -8.755460 94.480600 -19.268700 -89.184300 1.407840 177.158000 15.735700 0.000005 -0.000001 129.253000 83.850800 -129.221000 8.984550 -0.406207 -0.000000 1.772040 7.775540 -0.055815 16.377300 -0.000001 -0.000001 -6.573900 -2.914540 0.743052 6.456720 -0.000001 -0.000000 -12.964000 -5.244410 0.005326 12.994200 -0.242716 4.980390 -88.610300 -3.413320 -67.829700 5.348090 -0.000007 -0.000001 -60.263700 35.057000 11.126700 24.328600 0.000019 0.000005 18.667600 -6.802090 -109.319000 22.291600 -0.000001 0.000005 7.816880 5.424640 -3.757190 12.994500 -0.242716 -4.980390 89.063400 4.580700 -78.432100 -5.348130 -0.000001 -0.000004 -65.349600 40.322800 -7.968830 -24.328900 0.000322 -0.000009 2.392980 -0.617392 -104.462000 -22.291500 -0.000108 -0.000004 19.496400 5.519140 -7.313170 -2.192480 -6.469440 -0.000000 -178.778000 1.494100 -22.878600 39.081100 -0.000007 -0.000012 0.005276 -0.009346 29.444800 40.985400 -0.000006 -0.000013 2.348550 0.160219 -62.046800 11.754300 -0.000000 0.000003 -0.005875 -0.069702 -19.413500 -2.192510 6.469440 -0.000001 174.399000 20.500400 -173.504000 -39.081100 -0.002282 -0.040193 0.148657 -0.232931 31.966100 -40.985400 0.000008 0.000006 0.757707 18.759400 -36.959800 -11.754300 -0.000006 -0.000006 -0.037703 -0.250823 -26.870000
0.000000 0.000000 0.000000 0.000000 0.000000 -0.000000 -8.725510 93.731600 -26.556200 -87.263500 1.788260 178.117000 15.735700 0.000005 -0.000001 130.826000 83.628800 -130.006000 8.984550 -0.406207 -0.000000 1.836960 8.282980 1.507640 16.377300 -0.000001 -0.000001 -5.786000 -2.616950 0.018380 6.456720 -0.000001 -0.000000 -12.443100 -4.445580 -3.530010 12.994200 -0.242716 4.980390 -88.123600 -4.714020 -68.266100 5.348090 -0.000007 -0.000001 -60.168800 33.379100 11.503400 24.328600 0.000019 0.000005 16.414700 -5.882280 -109.181000 22.291600 -0.000001 0.000005 7.800080 5.403790 -3.060110 12.994500 -0.242716 -4.980390 89.332400 3.342690 -78.699500 -5.348130 -0.000001 -0.000004 -63.799200 42.865400 -9.953140 -24.328900 0.000322 -0.000009 1.392220 -0.420894 -106.843000 -22.291500 -0.000108 -0.000004 17.935600 5.499010 -6.491100 -2.192480 -6.469440 -0.000000 -177.272000 -2.084960 -20.803200 39.081100 -0.000007 -0.000012 -0.031150 0.086088 19.892000 40.985400 -0.000006 -0.000013 -2.590340 7.010420 -65.827500 11.754300 -0.000000 0.000003 -0.007184 -0.081244 -19.884400 -2.192510 6.469440 -0.000001 174.783000 18.586200 -171.197000 -39.081100 -0.002282 -0.040193 0.170246 -0.231903 35.751900 -40.985400 0.000008 0.000006 -3.089250 12.384700 -34.747700 -11.754300 -0.000006 -0.000006 -0.020787 -0.171610 -23.585900
0.000000 0.000000 0.000000 0.000000 0.000000 -0.000000 -9.143480 92.018200 -33.667400 -87.298300 3.273640 178.416000 15.735700 0.000005 -0.000001 131.766000 83.634900 -130.790000 8.984550 -0.406207 -0.000000 1.677040 8.422630 1.829350 16.377300 -0.000001 -0.000001 -4.540780 -1.937780 -0.624501 6.456720 -0.000001 -0.000000 -11.620000 -3.825850 -6.350430 12.994200 -0.242716 4.980390 -88.003100 -4.953540 -68.010500 5.348090 -0.000007 -0.000001 -59.393700 31.108800 10.694600 24.328600 0.000019 0.000005 15.342400 -5.158910 -108.146000 22.291600 -0.000001 0.000005 7.470520 5.386480 -2.502540 12.994500 -0.242716 -4.980390 89.358900 3.274560 -78.917100 -5.348130 -0.000001 -0.000004 -60.186900 45.284300 -13.007900 -24.328900 0.000322 -0.000009 -0.840779 0.283876 -108.625000 -22.291500 -0.000108 -0.000004 17.769000 5.490420 -6.152320 -2.192480 -6.469440 -0.000000 -179.553000 -6.312460 -23.293100 39.081100 -0.000007 -0.000012 0.096940 -0.223720 23.427600 40.985400 -0.000006 -0.000013 2.287210 6.192920 -69.092500 11.754300 -0.000000 0.000003 -0.008177 -0.089481 -20.220700 -2.192510 6.469440 -0.000001 175.099000 12.997400 -171.712000 -39.081100 -0.002282 -0.040193 0.177400 -0.183049 43.569900 -40.985400 0.000008 0.000006 -1.102300 5.930490 -39.132000 -11.754300 -0.000006 -0.000006 -0.020492 -0.169998 -23.519500
0.000000 0.000000 0.000000 0.000000 0.000000 -0.000000 -10.171000 89.626700 -40.760300 -90.307700 4.327950 179.728000 15.735700 0.000005 -0.000001 124.617000 83.604400 -124.455000 8.984550 -0.406207 -0.000000 2.770450 7.252840 0.149748 16.377300 -0.000001 -0.000001 -2.834530 -1.367940 -1.242220 6.456720 -0.000001 -0.000000 -12.004300 -3.058860 -7.490070 12.994200 -0.242716 4.980390 -88.630100 -3.315080 -67.531600 5.348090 -0.000007 -0.000001 -57.005600 27.804900 9.027710 24.328600 0.000019 0.000005 17.006500 -5.363560 -106.995000 22.291600 -0.000001 0.000005 7.992080 5.394100 -2.740060 12.994500 -0.242716 -4.980390 89.057900 4.688530 -78.625800 -5.348130 -0.000001 -0.000004 -55.141100 46.705900 -16.923000 -24.328900 0.000322 -0.000009 -2.703210 0.945266 -109.258000 -22.291500 -0.000108 -0.000004 17.308000 5.493500 -6.274280 -2.192480 -6.469440 -0.000000 176.569000 -6.469200 -26.243200 39.081100 -0.000007 -0.000012 0.070682 -0.106656 33.532400 40.985400 -0.000006 -0.000013 3.884710 -0.289478 -58.332800 11.754300 -0.000000 0.000003 -0.001561 -0.023086 -17.515500 -2.192510 6.469440 -0.000001 171.601000 8.842060 -173.399000 -39.081100 -0.002282 -0.040193 0.205549 -0.143960 54.566500 -40.985400 0.000008 0.000006 2.211260 1.987170 -40.947400 -11.754300 -0.000006 -0.000006 -0.019495 -0.164475 -23.292000
0.000000 0.000000 0.000000 0.000000 0.000000 -0.000000 -10.854800 86.423000 -48.058400 -91.689700 5.226870 -177.865000 15.735700 0.000005 -0.000001 115.596000 83.456500 -115.764000 8.984550 -0.406207 -0.000000 4.061310 5.650860 -0.536236 16.377300 -0.000001 -0.000001 -2.129940 -1.096290 -0.950687 6.456720 -0.000001 -0.000000 -10.009800 -2.000440 -8.391220 12.994200 -0.242716 4.980390 -89.701600 -0.717507 -67.439600 5.348090 -0.000007 -0.000001 -54.076400 24.206400 7.735450 24.328600 0.000019 0.000005 18.714900 -5.800690 -106.612000 22.291600 -0.000001 0.000005 10.373600 5.430710 -3.940120 12.994500 -0.242716 -4.980390 88.607600 6.558260 -77.988400 -5.348130 -0.000001 -0.000004 -52.672800 46.978400 -17.942000 -24.328900 0.000322 -0.000009 -1.097760 0.374647 -108.801000 -22.291500 -0.000108 -0.000004 16.259600 5.500170 -6.546510 -2.192480 -6.469440 -0.000000 175.236000 -4.135470 -26.487800 39.081100 -0.000007 -0.000012 -0.266418 0.233032 48.825000 40.985400 -0.000006 -0.000013 2.952150 -4.013690 -70.923500 11.754300 -0.000000 0.000003 -0.000393 -0.003256 -16.697700 -2.192510 6.469440 -0.000001 169.665000 5.766960 -176.231000 -39.081100 -0.002282 -0.040193 0.214777 -0.087668 67.498600 -40.985400 0.000008 0.000006 4.241430 -2.611070 -38.429800 -11.754300 -0.000006 -0.000006 -0.018663 -0.159771 -23.098300
0.000000 0.000000 0.000000 0.000000 0.000000 -0.000000 -11.390000 84.093800 -54.605900 -94.141300 5.895460 -176.020000 15.735700 0.000005 -0.000001 106.227000 82.936300 -107.239000 8.984550 -0.406207 -0.000000 5.845300 3.954660 -2.224340 16.377300 -0.000001 -0.000001 -3.143550 -0.963978 -0.277088 6.456720 -0.000001 -0.000000 -8.975350 -1.175440 -8.703520 12.994200 -0.242716 4.980390 -91.602400 3.863020 -67.454900 5.348090 -0.000007 -0.000001 -50.392500 20.327500 3.487090 24.328600 0.000019 0.000005 21.033600 -6.006370 -105.228000 22.291600 -0.000001 0.000005 13.674200 5.489160 -6.083610 12.994500 -0.242716 -4.980390 87.860600 9.721060 -77.523800 -5.348130 -0.000001 -0.000004 -54.264500 44.595100 -13.758600 -24.328900 0.000322 -0.000009 6.032000 -1.835860 -106.888000 -22.291500 -0.000108 -0.000004 16.828800 5.545180 -8.453900 -2.192480 -6.469440 -0.000000 172.307000 -5.521640 -23.181300 39.081100 -0.000007 -0.000012 -0.458624 0.314629 55.549800 40.985400 -0.000006 -0.000013 3.146030 -4.607910 -79.491300 11.754300 -0.000000 0.000003 -0.000718 -0.005378 -16.771100 -2.192510 6.469440 -0.000001 168.201000 2.800640 177.768000 -39.081100 -0.002282 -0.040193 0.107257 -0.017151 80.673100 -40.985400 0.000008 0.000006 8.456740 -4.882410 -38.596500 -11.754300 -0.000006 -0.000006 -0.017301 -0.151853 -22.772600
